<?xml version="1.0" encoding="utf-8"?>
<!-- Generator: Adobe Illustrator 22.0.1, SVG Export Plug-In . SVG Version: 6.00 Build 0)  -->
<svg version="1.1" xmlns="http://www.w3.org/2000/svg" xmlns:xlink="http://www.w3.org/1999/xlink" x="0px" y="0px"
	 viewBox="0 0 200 200" enable-background="new 0 0 200 200" xml:space="preserve">
<g id="Layer_1" display="none">
	<polygon display="inline" fill="#FF0000" points="52.1,99.5 79.8,115.5 79.8,108.5 147.9,108.5 147.9,90.5 79.8,90.5 79.8,83.5 	
		"/>
</g>
<g id="Layer_2">
	<path fill="#0071BC" d="M66,150.2c-14-9.7-23-22.9-25.9-39.8c-3.5-20.1,1.9-37.8,15.6-52.9c0.1-0.1,0.1-0.1,0.2-0.1
		c0.4,0.6,0.2,1.2-0.1,1.8c-0.4,1-0.9,1.9-1.4,2.8c-0.6,1.3-1.1,2.6-1.4,4c-0.2,1.1,0,2,0.7,2.9c1.5,2,2.8,4.1,3.9,6.4
		c1,2.3,1.5,4.8,1.6,7.3c0,1,0.4,1.6,1.3,2c1.7,0.7,1.9,0.6,0.9,2.6c-1.6,3.2-2.8,6.6-3.1,10.3c-0.3,3.3,0.1,6.4,2.2,9
		c0.5,0.6,1.1,1.1,1.7,1.6c0.4,0.4,0.7,0.8,0.7,1.3c0,2.1-0.2,4.3-0.3,6.4c-0.1,1.9-0.2,3.8-0.4,5.6c-0.2,2.6-0.2,5.2-0.2,7.8
		c0,2.5,0.4,5,0.9,7.4c0.2,1.1,0.8,2,1.6,2.8c1.2,1.1,2.6,1.9,4.2,2.1c0.9,0.1,1.3-0.2,1.2-1.1c-0.1-0.5-0.2-0.9-0.4-1.3
		c-0.3-0.6-0.2-1.2,0.1-1.7c1.7-3,3.3-6,5.6-8.7c2-2.4,4.3-4.6,7.4-5.6c1-0.3,2.1-0.5,3.2-0.4c1.4,0.1,2.3-0.5,3.1-1.6
		c0.4-0.6,0.8-1.3,1.1-2c0.3-0.6,0.7-1,1.4-1.2c3.4-0.9,5.5-3.2,6.4-6.6c0.5-2.1,0.2-4.1-0.9-6c-0.3-0.4-0.6-0.8-1.1-0.8
		c-1.9,0-3.2-1-4.4-2.4c-1.1-1.3-2.3-2.5-4-3c-0.7-0.2-0.8-0.8-0.9-1.4c-0.5-2.8-1.8-5.3-3.7-7.4c-2.1-2.4-4.8-4.1-7.5-5.7
		c-1.9-1.1-4-2.1-6-3.1c-1-0.5-1.5-0.4-2.3,0.3c-0.2,0.2-0.4,0.4-0.6,0.6c-1.4,1.1-2.4,1.1-3.5-0.3c-0.9-1.1-1.1-2.3-1.3-3.6
		c-0.2-1.4-0.5-2.8-1.2-4c-0.3-0.5-0.2-1.1,0.2-1.5c0.3-0.4,0.8-0.7,1.1-1.1c0.5-0.7,0.4-1.3-0.3-1.7c-2.1-1.4-2.8-3.6-2.1-5.9
		c1.3-3.9,5.4-5.5,9-3.6c0.7,0.4,0.9,0.9,1.1,1.6c0.2,0.8,0.3,1.7,0.5,2.6c0.5,1.7,0.9,2.4,3,1.1c1-0.6,1.4-1.5,1.5-2.7
		c0-1.5,0-1.5,1.5-2.1c1.5-0.6,2.8-1.4,4.2-2.3c1.1-0.7,2.2-1.3,3.3-1.9c2.8-1.4,5.7-1.4,8.6-0.7c1.2,0.3,1.7,0.1,2-1.1
		c0.3-1.2,0.4-1.3,1.6-0.8c1,0.4,2.1,0.7,3.2,0.5c1.7-0.4,2.3-1.4,1.8-3c-0.2-0.6-0.5-1.1-0.7-1.7c-0.3-0.8-0.3-1.4,0.3-2.1
		c0.5-0.6,0.5-0.8-0.2-1.3c-0.6-0.5-1.3-0.8-1.9-1.3c-0.5-0.4-1.2-0.2-1.7,0C95,45.7,94,46.4,93,47.1c-1.4,1-2.9,1.8-4.7,1.6
		c-1-0.1-0.9-0.2-1.1-1.1c-0.4-1.8,0.6-2.7,1.8-3.6c2.2-1.6,4.7-2.6,7.5-2c1.5,0.3,2.8,0.9,3.8,1.9c0.6,0.5,1.1,0.6,1.8,0.3
		c1.7-0.7,2.4-2.2,2.7-3.9c0-0.2,0-0.4,0-0.6c0-0.6,0.3-0.8,0.9-0.7c0.4,0.1,0.7,0.2,1.1,0.2c0.2,0,0.5,0.1,0.6-0.2
		c0.1-0.2,0.2-0.3,0.4-0.2c0.4,0,0.9,0,1.3,0.2c0.1,0.1,0.1,0.2,0.2,0.4c-0.2,1.6-0.9,3-1.3,4.6c-0.3,1.1-0.4,2.2-0.3,3.3
		c0,0.8,0.4,1.5,1,2c0.8,0.6,1.1,0.6,1.9-0.1c0.9-0.8,2-1.3,3.2-1.6c1.2-0.4,2.4-0.6,3.5-1.1c0.8-0.4,1.5-0.8,2.1-1.5
		c0.4-0.5,0.5-1,0.1-1.6c-0.5-0.7-0.9-1.3-1.3-2c0.1-0.2,0.2-0.2,0.4-0.1c4.3,1.2,8.3,3.1,12.2,5.3c0.1,0.1,0.2,0.2,0.3,0.3
		c0,0.3,0.2,0.6,0.5,0.8c1.2,1.1,2.5,2,4.2,2.1c0.2,0.2,0.5,0.3,0.7,0.5c-0.3,0.6-0.9,0.6-1.5,0.5c-0.6-0.1-1.2-0.4-1.8-0.6
		c-0.9-0.3-1.1-0.1-1,0.8c0.2,1.6,0.9,3,1.8,4.3c1.3,2,3,3.7,4.2,5.9c0.9,1.6,1.1,3.2-0.1,4.8c-0.8,1-1.8,1.6-2.9,2.2
		c-0.3,0.2-0.7,0.1-1-0.1c-0.8-0.6-1.6-0.7-2.5-0.8c-1-0.1-1.4,0.2-1.6,1.2c-0.4,1.8,0.2,3,1.7,4c1.3,0.7,2.7,1,4.1,1.2
		c0.4,0.1,0.7-0.2,1-0.5c0.3-0.4,0.6-0.9,0.9-1.4c0.6-0.7,1.4-1.3,2.4-0.4c0.6,0.6,1.4,0.5,2.2,0.4c1.4-0.2,1.5-0.2,1.6,1.2
		c0.1,1.1,0.8,1.8,1.8,2.3c1,0.5,2.1,0.8,3.1,1.1c1.5,0.4,3,0.9,4.3,1.9c1.3,1,1.9,2.3,2.1,3.9c0.1,0.9-0.2,1.1-1.1,0.9
		c-2.1-0.6-3.9-1.6-5.8-2.6c-2.6-1.5-5.2-3-8.2-3.8c-1.9-0.5-3.8-0.6-5.8-0.3c-0.4,0.1-0.8,0.2-1.1,0.5c-1,1.2-2.2,2.1-3.4,3.1
		c-1.1,0.9-2.2,1.8-3.1,2.9c-1.8,1.9-2.6,4.1-2,6.6c0.2,0.7,0,1.2-0.4,1.8c-1.4,1.7-1.9,3.8-2.4,5.9c-0.2,0.8,0.2,1.5,0.6,2.1
		c0.7,1.3,1.9,2.1,3.2,2.7c2,0.9,4.2,1.2,6.3,1.6c1.6,0.3,3.2,0.6,4.8,1.2c1,0.3,1.9,0.8,2.6,1.5c1.3,1.1,1.8,2.6,1.7,4.3
		c-0.4,4.2-1.1,8.3-2.3,12.4c-1.1,3.5-2.4,6.9-4.2,10c-0.8,1.5-1.8,2.9-2.9,4.1c-0.3,0.3-0.5,0.6-0.3,1.1c0.6,1.9,0.1,3.7-0.9,5.3
		c-0.6,1-0.6,1,0.4,1.6c0.8,0.5,1.7,1,2.7,1.2c1.6,0.4,2.9-0.1,4.1-1.1c1.4-1.3,2.4-2.9,3.5-4.5c0.6-0.8,1.1-1.6,1.7-2.4
		c0.9-1.2,2.1-2.2,3.4-2.9c0.8-0.4,1.6-0.9,2.4-1.3c1.4-0.7,2.4-1.8,3.2-3.2c1-1.8,1.8-3.8,2.5-5.7c0.5-1.2,0.9-2.3,1.7-3.3
		c0.4-0.5,0.7-1.2,1.5-1.2c0.1,0.1,0.1,0.3,0,0.4c-2.2,6.3-5.5,12.1-9.7,17.2c-10.1,12.3-22.9,19.6-38.6,22.1
		c-0.3,0-0.6,0.1-0.9,0.2c-0.4,0.1-0.6-0.1-0.9-0.3c-2.4-1.5-5-2.3-7.8-2.1c-0.2,0-0.4,0-0.6,0.1c-1.2,0.6-2.3,0.1-3.4-0.4
		c-2.8-1.2-5.8-1.6-8.9-2.1c-2.9-0.4-5.7-1-8.3-2.5c-0.5-0.3-0.9-0.6-1.3-0.9c-0.6-0.5-0.9-1-0.4-1.7c0.3-0.5,0.1-0.8-0.4-1
		c-0.8-0.3-1.5-0.1-2.3,0.2c-0.7,0.3-1.4,0.7-2.1,1c-1.7,1-3.5,1-5.2,0C66.4,150.4,66.2,150.3,66,150.2z"/>
	<g>
		<path fill="#39B54A" d="M107.4,39.1c0.1,0.1,0.4,0.2,0.3,0.5c-0.1,0.2-0.4,0.1-0.5,0.1c-0.7-0.1-1.4-0.3-2.2-0.4
			c0,0.9-0.1,1.7-0.3,2.5c-0.6,1.6-1.6,2.6-3.2,3c-0.3,0.1-0.6,0.1-0.9-0.2c-3.3-3.4-8.2-3-11.7-0.2c-0.3,0.2-0.6,0.5-0.8,0.7
			c-0.6,0.5-1.1,1-0.7,1.8c0,0.1,0,0.2,0,0.3c0,1.3,0,1.3,1.3,1.3c1.6,0,2.9-0.8,4.1-1.6c1.1-0.8,2.2-1.6,3.6-2
			c0.8-0.2,1.4-0.4,2.1,0.4c0.4,0.5,1.1,0.7,1.6,1.1c0.8,0.6,0.8,0.9,0.1,1.6c-0.5,0.4-0.6,0.9-0.3,1.5c0.3,0.7,0.6,1.4,0.9,2.2
			c0.6,1.9-0.9,3.5-3.1,3.3c-0.9-0.1-1.7-0.3-2.5-0.7c-0.6-0.3-1-0.3-1,0.5c0,0.3-0.1,0.6-0.2,0.8c-0.3,0.7-0.8,1-1.6,0.8
			c-4-1.3-7.7-0.5-11.2,1.8c-2,1.3-3.9,2.6-6.2,3.3c-0.4,0.1-0.4,0.4-0.4,0.7c0,0.9-0.1,1.9-0.6,2.7c-0.2,0.3-0.5,0.6-0.7,0.9
			c-1.8,1.6-3.1,1.2-3.7-1.1c-0.2-1-0.4-1.9-0.6-2.9c-0.1-0.3-0.2-0.7-0.5-0.8c-2-1.1-4.1-1.4-6.2-0.2c-2,1.2-3.1,3-3,5.4
			c0,1.6,0.8,2.9,2.2,3.7c0.9,0.6,1.2,1.5,0.4,2.2c-1.4,1.1-1.5,2.1-0.6,3.5c0.6,1.1,0.6,2.4,0.8,3.6c0.3,1.2,0.6,2.4,1.5,3.3
			c0.8,0.8,1.6,0.8,2.5,0.1c0,0,0.1,0,0.1-0.1c1.3-1.9,2.9-1.6,4.7-0.6c3.8,2,7.6,3.9,10.8,6.8c2.9,2.6,4.8,5.7,5.4,9.6
			c0.1,0.3,0.1,0.6,0.5,0.7c1.6,0.4,2.8,1.4,3.8,2.7c1.3,1.6,2.7,2.8,4.9,2.7c0.4,0,0.6,0.4,0.8,0.6c2.2,3.2,1.7,7.7-1,10.7
			c-1.3,1.3-2.8,2.3-4.6,2.7c-0.5,0.1-0.8,0.4-1,0.8c-0.2,0.6-0.6,1.1-0.9,1.7c-0.8,1.4-2,2.2-3.8,2.1c-2.9-0.1-5.4,1.3-7.5,3.1
			c-3,2.6-5.1,5.9-7.1,9.3c-0.2,0.3-0.3,0.6-0.5,0.9c-0.8,1.2-1.3,2.4-0.5,3.8c0.1,0.2,0.1,0.5,0.1,0.8c0,0.9-0.2,1.2-1.1,1.1
			c-2.4-0.3-4.4-1.4-5.7-3.4c-0.8-1.3-0.9-2.9-1.1-4.3c-0.7-4.5-0.4-9-0.1-13.5c0.3-3.8,0.6-7.6,0.5-11.4c0-0.4,0-0.7-0.4-0.9
			c-3.3-2.3-4.4-5.7-4.3-9.6c0.1-4.5,1.6-8.6,3.6-12.5c0.4-0.8,0.2-1-0.5-1.2c-0.4-0.2-0.8-0.4-1.3-0.6c-0.6-0.3-0.9-0.8-0.9-1.5
			c0.1-4.7-1.7-8.7-4.3-12.5c-0.4-0.5-0.7-1.1-1.2-1.6c-0.8-0.9-0.8-1.9-0.6-3c0.3-1.9,1.2-3.6,2-5.3c0.5-1.1,1.2-2.1,1.1-3.4
			c1.9-2.2,4.1-4.2,6.4-6C71,44.3,81,40.3,92.1,38.9c4.5-0.6,8.9-0.7,13.4-0.3c0.3,0,0.7,0.1,1,0.3
			C106.8,38.8,107.1,38.8,107.4,39.1z"/>
		<path fill="#39B54A" d="M157.3,120.2c-1.3,1-2,2.5-2.6,3.9c-0.8,1.8-1.4,3.6-2.2,5.4c-1.1,2.3-2.6,4-5,5c-2.5,1-4.3,2.8-5.8,5.1
			c-1.2,1.7-2.2,3.5-3.7,5c-1.9,1.9-3.7,2.2-6.1,1.1c-0.2-0.1-0.4-0.2-0.5-0.3c-0.6-0.4-1.4-0.7-1.8-1.2c-0.4-0.6,0.5-1.1,0.8-1.7
			c0.7-1.5,1.1-3.1,0.5-4.8c-0.1-0.3-0.1-0.5,0.1-0.8c4.5-5.4,6.8-11.8,8.4-18.6c0.6-2.7,1-5.5,1.2-8.3c0.2-1.9-0.7-3.2-2.1-4.3
			c-1.7-1.2-3.8-1.6-5.8-2c-1.8-0.3-3.5-0.6-5.3-1.1c-1.7-0.5-3.3-1-4.6-2.4c-1.2-1.3-1.9-2.7-1.2-4.6c0.7-1.8,1.2-3.8,2.6-5.3
			c0.2-0.2,0.2-0.4,0.1-0.7c-0.8-3.1,0.2-5.6,2.4-7.7c1.4-1.4,3-2.5,4.5-3.8c0.1-0.1,0.2-0.1,0.3-0.2c1.8-2.7,4.5-2.3,7.2-2
			c2.8,0.4,5.3,1.7,7.7,3c2.1,1.1,4.1,2.4,6.3,3.2c0.7,0.2,1.3,0.5,2.1,0.6c0.1-1.9-0.5-3.4-2-4.6c-1.1-0.8-2.4-1.3-3.7-1.7
			c-1.2-0.4-2.5-0.7-3.6-1.2c-1.3-0.6-2-1.5-1.9-3c0-0.5-0.2-0.6-0.6-0.6c-0.4,0-0.9,0-1.3,0.1c-0.7,0.1-1.4,0-1.9-0.6
			c-0.7-0.7-1.3-0.4-1.8,0.1c-0.4,0.5-0.8,1-1.1,1.5c-0.4,0.6-0.8,0.8-1.5,0.6c-1.2-0.3-2.5-0.5-3.7-1.1c-2-1-2.7-2.9-1.9-5
			c0.1-0.4,0.3-0.5,0.7-0.6c1.3-0.2,2.5,0,3.6,0.8c0.3,0.2,0.5,0.3,0.8,0.1c0,0,0.1-0.1,0.2-0.1c3.8-2,4.3-4.3,1.9-7.8
			c-1.1-1.6-2.3-3-3.4-4.6c-1-1.4-1.8-2.9-1.9-4.6c-0.1-0.9,0.2-1.2,1.1-0.9c0.5,0.2,1,0.4,1.5,0.6c0.7,0.2,1.4,0.3,2-0.2
			c2.1,1.3,4,2.9,5.7,4.7c2.9,2.9,6.1,5.6,8.5,9c3.2,4.5,5.6,9.5,7.4,14.8c2.9,8.3,4.3,16.7,3.7,25.5c-0.2,2.3-0.3,4.6-0.6,6.9
			c-0.2,2.1-0.8,4.1-1.8,6c-0.4,0.9-0.9,1.8-1.3,2.6C157.6,119.8,157.5,120,157.3,120.2z"/>
		<path fill="#39B54A" d="M66,150.2c0.4,0.1,0.9,0.2,1.2,0.4c1.5,0.7,2.9,0.6,4.3-0.2c0.8-0.4,1.6-0.9,2.5-1.3
			c0.8-0.3,1.6-0.4,2.4-0.1c0.8,0.3,0.9,0.7,0.4,1.3c-0.5,0.6-0.3,1,0.2,1.4c2,1.6,4.3,2.3,6.7,2.8c3,0.6,6.1,0.9,9.1,1.7
			c1.3,0.4,2.7,0.8,3.9,1.5c0.2,0.1,0.4,0.3,0.7,0.2c3.7-1.1,7-0.1,10.1,1.9c0.2,0.1,0.4,0.2,0.6,0.4c-0.9,0.3-1.9,0.2-2.8,0.3
			c-0.6,0.1-1.2,0.1-1.9,0.1c-0.6-0.1-1.1-0.1-1.7,0c-0.9,0-1.9,0-2.8,0c-0.6-0.1-1.3-0.1-1.9,0c-0.4,0.1-0.7-0.1-1.1-0.2
			c-0.3-0.1-0.7-0.1-1,0c-2.5-0.1-4.9-0.6-7.3-1c-4.5-0.9-8.9-2.4-13.1-4.3c-2.8-1.3-5.5-2.8-8.1-4.5
			C66.2,150.4,66.1,150.3,66,150.2z"/>
		<path fill="#39B54A" d="M117.8,41.4c0.9,0.6,1.1,1.7,1.9,2.5c0.2,0.2,0,0.5-0.1,0.7c-0.5,0.9-1.3,1.6-2.3,2
			c-1.2,0.6-2.4,0.8-3.6,1.2c-1.4,0.4-2.7,0.9-3.6,2.1c-0.2,0.3-0.5,0.2-0.8,0.1c-1.3-0.5-2-1.5-2.1-2.8c-0.1-1.3,0.2-2.6,0.6-3.8
			c0.4-1.3,0.8-2.5,1.2-3.8c0.8-0.2,1.5,0.1,2.3,0.2c1.2-0.2,2.2,0.3,3.2,0.7c0.4-0.2,0.8,0.1,1.2,0.2c0.2,0.1,0.5,0.1,0.7,0.2
			c0.3,0.1,0.6,0.2,0.9,0.3l0,0C117.4,41.1,117.7,41.1,117.8,41.4z"/>
		<path fill="#39B54A" d="M135.4,49.7c-0.6,0.3-1.1,0.1-1.7-0.1c-1.2-0.5-2.2-1.4-3.2-2.3c-0.4-0.4,0.1-0.3,0.1-0.5
			c0.8,0.2,1.4,0.8,2,1.2c0.3,0,0.4,0.4,0.7,0.5C134.2,48.8,134.8,49.2,135.4,49.7z"/>
		<path fill="#39B54A" d="M129.6,58.1c0-0.5-0.3-0.8-0.5-1.2c-0.1-0.3-0.2-0.6-0.2-0.8c0-0.4,0-1,0.3-1.2c0.4-0.3,0.7,0.2,1,0.4
			c2,1.3,3.2,3.3,4.1,5.5c0.1,0.2,0.2,0.4,0.2,0.6c0.1,0.6,0.9,1.3,0.4,1.7c-0.7,0.7-1.6,1.1-2.7,0.9c-0.4-0.1-0.8-0.3-1.2-0.4
			c-0.7-0.2-0.8-0.8-0.7-1.4c0-0.2,0.1-0.4,0.1-0.6c0.2-1,0.1-1.1-0.8-1c-0.7,0.1-1.4-0.1-2.1-0.2c-0.4-0.1-0.5-0.2-0.4-0.6
			C127.7,58.4,128.2,58,129.6,58.1z"/>
		<path fill="#39B54A" d="M77.8,76.5c-2.1-0.3-4.2-0.6-6.3-1c-1.2-0.2-2.4-0.8-3.2-1.7c-0.2-0.3-0.5-0.6-0.6-1
			c2.5,0.4,5.1,0.3,7.5,1.1C76.7,74.4,77.6,75.3,77.8,76.5z"/>
		<path fill="#39B54A" d="M71.7,72.3c-2.1-0.6-4-1.4-5.2-3.3c-0.5-0.7-0.4-0.8,0.5-0.9C69.2,67.8,71.9,70.2,71.7,72.3z"/>
	</g>
	<line fill="none" stroke="#FF0000" stroke-width="10" stroke-miterlimit="10" x1="31.3" y1="31.3" x2="168.8" y2="168.8"/>
	<line fill="none" stroke="#FF0000" stroke-width="10" stroke-miterlimit="10" x1="31.3" y1="168.8" x2="168.8" y2="31.3"/>
</g>
</svg>
