<?xml version="1.0" encoding="utf-8"?>
<!-- Generator: Adobe Illustrator 22.0.1, SVG Export Plug-In . SVG Version: 6.00 Build 0)  -->
<svg version="1.1" xmlns="http://www.w3.org/2000/svg" xmlns:xlink="http://www.w3.org/1999/xlink" x="0px" y="0px"
	 viewBox="0 0 200 200" style="enable-background:new 0 0 200 200;" xml:space="preserve">
<g id="Layer_1" style="display:none;">
	<g style="display:inline;">
		<linearGradient id="SVGID_1_" gradientUnits="userSpaceOnUse" x1="100" y1="157.6617" x2="100" y2="131.6837">
			<stop  offset="0" style="stop-color:#FFFFFF;stop-opacity:0"/>
			<stop  offset="1" style="stop-color:#00FFFF"/>
		</linearGradient>
		<polygon style="opacity:0.3;fill:url(#SVGID_1_);" points="130.5,158.2 69.5,158.2 80.5,68.3 118.5,68.3 		"/>
		<ellipse style="fill:#CBCBCB;stroke:#989898;stroke-miterlimit:10;" cx="100" cy="70.3" rx="91" ry="25"/>
		<ellipse style="fill:#CBCBCB;stroke:#989898;stroke-miterlimit:10;" cx="100" cy="57.3" rx="56.4" ry="15.5"/>
	</g>
</g>
<g id="Layer_2">
	<path style="fill:#FFFFFF;" d="M176.2,24.2c-50.6,0-101.2,0-152,0c0,50.7,0,101.4,0,152c-0.1,0-0.2-0.1-0.2-0.1c0-0.3,0-0.6,0-0.9
		c0-50.4,0-100.8,0-151.2c50.4,0,100.8,0,151.2,0C175.6,24,175.9,24.2,176.2,24.2z"/>
	<path style="fill:#9EB2A0;" d="M100.2,38c24.3,0,45,17.4,49.4,41.4c1.7,9.6,0.3,18.8-3.2,27.8c-4.3,11.4-10.8,21.5-18.4,30.8
		c-6.6,8.1-13.9,15.5-22.6,21.3c-1.2,0.8-2.5,1.3-3.9,1.6c-2.3,0.5-4.4-0.1-6.4-1.4c-5.7-3.6-10.8-8.1-15.5-13
		c-10.5-11-19.1-23.3-24.9-37.4c-2.9-7.3-4.9-14.8-4.5-22.7C51,69.4,58.5,56,72.6,46.3C80.7,40.7,90.3,38,100.2,38z M105,129.6
		c2.9,0,5.7,0.1,8.5,0c12.2-0.6,21.3-6.2,27.4-16.8c3.5-6.2,5.5-12.9,6.7-19.9c0.3-1.6,0.5-3.2,0.8-4.9c-1.4,0.2-2.5,0.3-3.7,0.4
		c-6.6,0.9-13.1,2.3-19.3,5.1C109.1,100.7,104.3,114.7,105,129.6z M52.9,87.9c0,0.4,0,0.7,0,0.9c0.9,6.4,2.3,12.7,4.8,18.7
		c2.6,6.2,6.2,11.7,11.6,15.8c6.3,4.8,13.6,6.4,21.3,6.4c1.9,0,3.7-0.2,5.9-0.3c-0.3-3.7-0.4-7.2-1-10.7
		c-1.5-9.4-6.1-16.9-14.2-22.2C72.7,90.9,63,89,52.9,87.9z"/>
	<path d="M105,129.6c-0.7-14.9,4.1-28.8,20.4-36.1c6.1-2.7,12.6-4.2,19.3-5.1c1.2-0.2,2.3-0.3,3.7-0.4c-0.3,1.7-0.5,3.3-0.8,4.9
		c-1.3,7-3.2,13.7-6.7,19.9c-6,10.6-15.2,16.2-27.4,16.8C110.7,129.7,107.9,129.6,105,129.6z"/>
	<path d="M52.9,87.9c10.1,1.1,19.8,3,28.4,8.6c8.1,5.2,12.7,12.7,14.2,22.2c0.6,3.5,0.6,7,1,10.7c-2.2,0.1-4,0.3-5.9,0.3
		c-7.7,0-15-1.6-21.3-6.4c-5.4-4.1-9-9.6-11.6-15.8c-2.5-6-3.9-12.3-4.8-18.7C52.9,88.6,52.9,88.3,52.9,87.9z"/>
</g>
</svg>
